<?xml version="1.0" encoding="utf-8"?>
<!-- Generator: Adobe Illustrator 19.2.1, SVG Export Plug-In . SVG Version: 6.00 Build 0)  -->
<svg version="1.1" xmlns="http://www.w3.org/2000/svg" xmlns:xlink="http://www.w3.org/1999/xlink" x="0px" y="0px"
	 viewBox="0 0 291.7 222.9" style="enable-background:new 0 0 291.7 222.9;" xml:space="preserve">
<style type="text/css">
	.st0{fill:#6B7D8D;}
	.st1{fill:url(#SVGID_1_);}
	.st2{fill:url(#SVGID_2_);}
	.st3{fill:url(#SVGID_3_);}
	.st4{fill:#97B0C5;}
	.st5{fill:#8CA4B4;}
</style>
<g id="rascal">
	<g>
		<path class="st0" d="M264.5,196.5h-14.8v-26.2h-4.5v30.2h19.3V196.5z M224.1,179.4c0-6.1-5.2-9.7-11.3-9.7
			c-3.6,0-7.6,1.1-10.1,4.2l3.2,2.9c1.7-2,4.2-2.7,6.8-2.7c3.4,0,6.9,1.9,6.9,5.9v2.6h-8.8c-6.8,0-10.7,3.7-10.7,9
			c0,6.5,4.9,9.5,10.7,9.5c3,0,6.8-1.1,8.8-3.7v3.1h4.5V179.4z M219.6,189.8c0,4.4-4.3,7.1-8.3,7.1c-3.3,0-6.3-1.5-6.3-5.1
			c0-3.6,2.8-5,5.8-5h8.8V189.8z M178.4,193.8c-1.9,1.9-4.3,2.9-6.9,2.9c-5.9,0-9.3-4-9.3-11.2c0-7.3,3.3-11.3,9.3-11.3
			c2.6,0,5,1.1,6.9,2.9l3.4-2.8c-2.9-3.1-6.3-4.6-10.3-4.6c-8.8,0-14.1,5.9-14.1,15.8c0,10.3,4.9,15.7,14.1,15.7
			c4,0,7.3-1.4,10.3-4.6L178.4,193.8z M138.9,191.8c0-5.3-4-7.8-8.9-8.3l-5.4-0.6c-2.3-0.3-4.9-1.3-4.9-4.2c0-3.4,3.9-4.3,6.5-4.3
			c2.9,0,5.5,0.9,8,2.5l2.5-3.6c-3-2.2-6.5-3.4-10.5-3.4c-5.3,0-11.3,2.9-11.3,9c0,4.9,3.8,7.9,8.4,8.5l5.7,0.7c2.6,0.3,5,1,5,3.9
			c0,4-4.2,4.9-7.5,4.9c-3.8,0-6.7-1.3-9.6-3.9l-2.7,3.6c3.6,3.2,7.4,4.8,12.3,4.8C132.3,201.2,138.9,198.5,138.9,191.8 M94.8,179.4
			c0-6.1-5.2-9.7-11.3-9.7c-3.6,0-7.6,1.1-10.1,4.2l3.2,2.9c1.7-2,4.2-2.7,6.8-2.7c3.4,0,6.9,1.9,6.9,5.9v2.6h-8.8
			c-6.8,0-10.7,3.7-10.7,9c0,6.5,4.9,9.5,10.7,9.5c3,0,6.8-1.1,8.8-3.7v3.1h4.5V179.4z M90.3,189.8c0,4.4-4.3,7.1-8.3,7.1
			c-3.3,0-6.3-1.5-6.3-5.1c0-3.6,2.8-5,5.8-5h8.8V189.8z M53.2,173.2c0,0-2.1-3.5-7.4-3.5c-4.2,0-6.7,2.3-7.3,3.3v-2.6h-4.5v30.2
			h4.5v-17.9c0-5,2.6-8,6.7-8c3,0,4.4,1.7,4.7,2L53.2,173.2z"/>
	</g>
</g>
<g id="Laag_15_kopie_7">
	
		<linearGradient id="SVGID_1_" gradientUnits="userSpaceOnUse" x1="508.1634" y1="-260.9739" x2="451.9846" y2="-177.0108" gradientTransform="matrix(0.866 -0.5 0.5 0.866 -230.6969 515.3336)">
		<stop  offset="1.239480e-03" style="stop-color:#83D0F5"/>
		<stop  offset="1" style="stop-color:#CAD517"/>
	</linearGradient>
	<polygon class="st1" points="61.2,90.9 80.6,90.9 90.3,74.1 70.9,74.1 	"/>
	
		<linearGradient id="SVGID_2_" gradientUnits="userSpaceOnUse" x1="571.5697" y1="-246.1103" x2="515.3908" y2="-162.1472" gradientTransform="matrix(0.866 -0.5 0.5 0.866 -230.6969 515.3336)">
		<stop  offset="0" style="stop-color:#83D0F5"/>
		<stop  offset="1" style="stop-color:#CAD517"/>
	</linearGradient>
	<polygon class="st2" points="150.8,100.5 141.1,83.7 121.7,83.7 131.4,100.5 	"/>
	
		<linearGradient id="SVGID_3_" gradientUnits="userSpaceOnUse" x1="538.812" y1="-251.3941" x2="482.6331" y2="-167.431" gradientTransform="matrix(0.866 -0.5 0.5 0.866 -230.6969 515.3336)">
		<stop  offset="1.239480e-03" style="stop-color:#83D0F5"/>
		<stop  offset="1" style="stop-color:#CAD517"/>
	</linearGradient>
	<polygon class="st3" points="109.8,17.8 100.1,34.6 109.8,51.5 119.5,34.6 	"/>
	<polygon class="st4" points="70.9,74.1 61.2,90.9 30.2,37.2 39.9,20.3 	"/>
	<polygon class="st4" points="94.2,114.5 76.3,83.5 66.6,100.3 99.1,156.5 131.4,100.5 121.7,83.7 104,114.5 	"/>
	<polygon class="st5" points="94.2,114.5 104,114.5 108.8,106.1 95.7,83.5 76.3,83.5 	"/>
	<polygon class="st0" points="131.4,100.5 150.8,100.5 118.5,156.5 99.1,156.5 	"/>
	<path class="st4" d="M136.8,91.1L152,64.6c3.5-5.9-0.5-13.2-7-13.2l-4.8,0l-13.2,22.8L136.8,91.1L136.8,91.1L136.8,91.1z"/>
	<path class="st0" d="M81.9,34.7c-6.1,0-10.3,7-7.5,11.9l2.8,4.8l21.8,0l9.7-16.8L81.9,34.7z"/>
	<path class="st5" d="M74.4,46.6c-2.8-5,1.4-11.9,7.5-11.9l26.8,0L99,17.8l-21.2,0c-10.7,0-16.3,6.4-16.3,6.4l-2.3-3.9l-19.4,0
		l31,53.8l19.4,0L74.4,46.6z"/>
	<g>
		<path class="st5" d="M169.4,46.5C169.4,46.5,169.4,46.5,169.4,46.5L169.4,46.5C169.4,46.4,169.4,46.4,169.4,46.5z"/>
		<path class="st5" d="M123.8,34.6L123.8,34.6l26.2,0c8.3,0,15.2,4.7,19,11l-9.2-16c0,0-6-11.8-19.1-11.8l-30.9,0l9.7,16.8H123.8z"
			/>
	</g>
	<path class="st0" d="M152,64.6c3.5-5.9-0.5-13.2-7-13.2l-35.2,0l9.7-16.8l30.5,0c17,0.1,27.9,19.3,19.3,33.7l-13.1,22.8l-19.4,0
		L152,64.6z"/>
</g>
</svg>
