<?xml version="1.0" encoding="utf-8"?>
<!-- Svg Vector Icons : http://www.onlinewebfonts.com/icon -->
<!DOCTYPE svg PUBLIC "-//W3C//DTD SVG 1.1//EN" "http://www.w3.org/Graphics/SVG/1.1/DTD/svg11.dtd">
<svg version="1.1" xmlns="http://www.w3.org/2000/svg" xmlns:xlink="http://www.w3.org/1999/xlink" x="0px" y="0px" viewBox="0 0 1000 1000" enable-background="new 0 0 1000 1000" xml:space="preserve">
<metadata> Svg Vector Icons : http://www.onlinewebfonts.com/icon </metadata>
<g><path d="M956.6,917.6H43.4c-18.5,0-33.4-15-33.4-33.4v-22.3c0-18.4,15-33.4,33.4-33.4h913.2c18.5,0,33.4,15,33.4,33.4v22.3C990,902.7,975,917.6,956.6,917.6z M958.4,734.6l-9.3,6.2c-12.8,8.5-30.1,5.1-38.6-7.7l-98.9-148.2c-8.5-12.8-5.1-30.1,7.7-38.6l9.3-6.2c12.8-8.5,30.1-5.1,38.6,7.7L966.1,696C974.7,708.8,971.2,726.1,958.4,734.6z M817.8,533.9c-81.9,54.6-192.5,32.5-247.1-49.3c-54.6-81.9-32.5-192.5,49.3-247.1c81.9-54.6,192.5-32.5,247.1,49.3C921.8,368.7,899.7,479.3,817.8,533.9z M830.1,311.5c-41-61.4-123.9-78-185.3-37s-78,123.9-37,185.3c41,61.4,123.9,78,185.3,37C854.5,455.9,871.1,372.9,830.1,311.5z M728.3,294c-58.4,0.2-105.8,47.4-105.8,105.8c2.1,39.7,23.8,33.9,22.3,61.3c-0.8,13.8-44.5-7.8-44.5-72.4c0-64.6,52.4-116.9,116.9-116.9c51.5-0.7,40.8,19.7,39,22.3C753.9,298.1,739.9,294.5,728.3,294z M711.6,608.1v142.5c0,18.5-15,33.4-33.4,33.4H566.8c-18.5,0-33.4-15-33.4-33.4V508.9c0.1,0.1,0.2,0.3,0.2,0.4C575.1,571.4,642.3,605.8,711.6,608.1z M444.3,784H333c-18.5,0-33.4-15-33.4-33.4v-490c0-18.5,15-33.4,33.4-33.4h111.4c18.5,0,33.4,15,33.4,33.4v490C477.7,769,462.8,784,444.3,784z M210.5,784H99.1c-18.5,0-33.4-15-33.4-33.4V115.8c0-18.5,15-33.4,33.4-33.4h111.4c18.5,0,33.4,15,33.4,33.4v634.8C243.9,769,228.9,784,210.5,784z"/></g>
</svg>