<?xml version="1.0" encoding="utf-8"?>
<!-- Svg Vector Icons : http://www.onlinewebfonts.com/icon -->
<!DOCTYPE svg PUBLIC "-//W3C//DTD SVG 1.1//EN" "http://www.w3.org/Graphics/SVG/1.1/DTD/svg11.dtd">
<svg version="1.1" xmlns="http://www.w3.org/2000/svg" xmlns:xlink="http://www.w3.org/1999/xlink" x="0px" y="0px" viewBox="0 0 1000 1000" enable-background="new 0 0 1000 1000" xml:space="preserve">
<metadata> Svg Vector Icons : http://www.onlinewebfonts.com/icon </metadata>
<g><g transform="translate(0.000000,512.000000) scale(0.100000,-0.100000)"><path d="M4689.7,5016.6c-759.2-65.2-1353.5-232-1968.9-554.1c-893.4-465.9-1652.6-1236.6-2105-2137.6C264.9,1625.1,100,923.4,100,120.1c0-801.4,164.9-1506.9,513.8-2202.8c400.7-795.6,1071.7-1522.2,1842.4-1991.9c1608.5-981.6,3671.4-937.5,5249.1,111.2C9743.3-2608,10471.8,18.5,9423.1,2229c-245.4,511.9-540.6,927.9-964.3,1353.5c-784.1,784.1-1704.4,1240.4-2810.5,1397.6C5448.9,5008.9,4854.5,5031.9,4689.7,5016.6z M5389.4,3350.5c554-115,1039.1-494.6,1296-1016.1c147.6-301,176.4-439,178.3-814.8c1.9-437.1-17.3-506.1-343.2-1159.9c-343.2-694-444.8-973.9-538.7-1495.4c-26.8-147.6-57.5-324-71-393l-23-124.6h-891.5h-891.5l-23,124.6c-13.4,69-44.1,245.4-70.9,393c-93.9,521.5-195.6,803.3-540.6,1495.4c-302.9,609.6-333.6,705.5-347,1083.2c-7.7,210.9-1.9,293.3,28.8,444.8c128.5,621.2,565.6,1138.8,1156,1374.6c134.2,51.8,345.1,103.5,515.7,124.6C4933.1,3400.4,5243.7,3379.3,5389.4,3350.5z M2647.9,3082.1c210.9-122.7,402.6-243.5,427.5-270.3c67.1-76.7,57.5-187.9-23-268.4c-109.3-109.3-149.5-99.7-594.3,157.2c-210.9,120.8-406.4,243.5-431.4,272.2c-65.2,70.9-47.9,201.3,34.5,276.1C2168.6,3344.8,2216.5,3331.4,2647.9,3082.1z M7931.6,3248.9c82.5-74.8,99.7-205.1,34.5-276.1c-24.9-28.8-218.6-151.5-431.4-272.2c-442.9-256.9-485-266.5-594.3-157.2c-80.5,80.5-90.1,191.7-21.1,268.4c23,26.8,214.7,149.5,425.6,270.3C7776.3,3329.5,7824.2,3344.8,7931.6,3248.9z M2693.9,1665.4c136.1-70.9,126.5-316.3-13.4-373.8c-38.3-17.3-195.6-21.1-538.7-17.3l-485,5.7l-46,53.7c-34.5,40.3-46,76.7-46,140c0,105.4,23,151.5,92,187.9C1731.5,1703.7,2615.3,1705.6,2693.9,1665.4z M8332.3,1663.5c72.8-38.3,95.9-82.4,95.9-189.8c0-63.3-11.5-99.7-46-140l-46-53.7l-485-5.7c-343.2-3.8-500.4,0-538.8,17.3c-139.9,57.5-147.6,299.1-13.4,373.8C7369.8,1705.6,8255.6,1703.7,8332.3,1663.5z M3052.4,419.2c51.8-51.8,65.2-80.5,65.2-141.9c0-46-15.3-93.9-36.4-122.7c-21.1-24.9-216.6-149.5-435.2-274.2c-456.3-262.7-490.8-272.2-596.2-155.3C1976.9-194.3,1963.5-85,2021-16c17.3,23,209,143.8,425.6,270.3C2901,518.9,2943.1,528.5,3052.4,419.2z M7548.1,252.4c222.4-128.4,416-253.1,433.3-279.9c38.3-55.6,23-184-26.8-239.6c-55.6-65.2-147.6-95.9-210.9-70.9c-111.2,42.2-795.6,448.6-832,492.7c-21.1,28.8-36.4,76.7-36.4,122.7c0,61.3,13.4,90.1,65.2,141.9C7049.7,528.5,7086.1,518.9,7548.1,252.4z M5820.8-1816.2c47.9-47.9,51.7-182.1,5.7-233.9c-28.8-32.6-80.5-34.5-826.3-34.5c-903,0-866.6-5.8-866.6,147.6c0,57.5,11.5,93.9,38.3,120.8c36.4,36.4,63.3,38.3,824.4,38.3C5757.5-1777.8,5784.4-1779.8,5820.8-1816.2z M5824.6-2270.6c24.9-21.1,34.5-57.5,34.5-122.7c0-157.2,30.7-151.5-862.7-151.5c-891.5,0-862.7-5.8-862.7,147.6c0,166.8-46,159.1,858.9,159.1C5707.7-2238,5792-2241.8,5824.6-2270.6z M5820.8-2717.3c47.9-47.9,51.7-182.1,5.7-233.9c-28.8-32.6-80.5-34.5-826.3-34.5c-908.7,0-866.6-7.7-866.6,155.3c0,157.2-30.7,151.5,866.6,151.5C5757.5-2678.9,5784.4-2680.8,5820.8-2717.3z M5552.4-3194.6c-24.9-88.2-74.8-149.5-168.7-209c-128.4-80.5-224.3-107.4-387.3-107.4c-278,0-502.3,128.5-556,316.3l-17.3,55.6h573.2h573.2L5552.4-3194.6z"/><path d="M4708.8,2969c-766.9-164.9-1282.6-870.4-1188.6-1625.8c28.8-232,82.4-375.8,302.9-801.4C4133.7-58.2,4283.2-464.6,4381-965c23-115,46-228.1,51.8-251.2c7.7-42.2,17.3-44.1,180.2-44.1h172.5v588.6v588.6l-333.6,337.4c-207.1,209-339.3,354.7-347,389.2c-32.6,128.5,72.8,262.7,205.1,262.7c70.9,0,92-15.3,371.9-287.6C4846.9,461.4,4990.7,331,5002.2,331c11.5,0,151.5,130.4,310.6,287.6c278,276.1,293.3,287.6,368.1,287.6c134.2,0,239.6-134.2,207.1-262.7c-7.7-34.5-140-180.2-347-389.2L5207.3-83.1v-588.6v-588.6h172.5c163,0,172.5,1.9,180.2,42.2c5.8,24.9,28.8,140,49.9,255c92,487,220.5,834,550.2,1485.8c278,552.1,316.3,672.9,318.2,987.3c0,256.9-36.4,414.1-149.5,651.8c-182.1,377.7-496.6,644.2-920.2,776.4C5236.1,2992,4889,3007.4,4708.8,2969z"/></g></g>
</svg>