<?xml version="1.0" encoding="utf-8"?>
<!-- Svg Vector Icons : http://www.onlinewebfonts.com/icon -->
<!DOCTYPE svg PUBLIC "-//W3C//DTD SVG 1.1//EN" "http://www.w3.org/Graphics/SVG/1.1/DTD/svg11.dtd">
<svg version="1.1" xmlns="http://www.w3.org/2000/svg" xmlns:xlink="http://www.w3.org/1999/xlink" x="0px" y="0px" viewBox="0 0 1000 1000" enable-background="new 0 0 1000 1000" xml:space="preserve">
<metadata> Svg Vector Icons : http://www.onlinewebfonts.com/icon </metadata>
<g><g transform="translate(0.000000,512.000000) scale(0.100000,-0.100000)"><path d="M4689.7,5016.6c-759.2-65.2-1353.5-232-1968.9-554.1c-893.4-465.9-1652.6-1236.6-2105-2137.6C264.9,1625.1,100,923.4,100,120.1c0-801.4,164.9-1506.9,513.8-2202.8c400.7-795.6,1071.7-1522.2,1842.4-1991.9c1608.5-981.6,3671.4-937.5,5249.1,111.2C9743.3-2608,10471.8,18.5,9423.1,2229c-245.4,511.9-540.6,927.9-964.3,1353.5c-784.1,784.1-1704.4,1240.4-2810.5,1397.6C5448.9,5008.9,4854.5,5031.9,4689.7,5016.6z M5765.2,3572.9l55.6-55.6v-435.2v-433.3l47.9-47.9c65.2-65.2,163-103.5,260.7-103.5c80.5,0,90.1,7.7,391.1,306.7c278,276.1,314.4,306.7,373.8,306.7c61.3,0,107.4-40.3,579-513.8c473.6-471.6,513.8-517.6,513.8-579c0-59.4-30.7-95.9-308.7-377.7l-310.6-310.6l13.4-80.5c15.3-95.9,57.5-182.1,122.7-251.1l49.9-53.7h419.8h419.9l55.6-55.6l55.6-55.6V120.1v-713.2l-55.6-55.6l-55.6-55.6h-414.1h-412.2l-55.6-69c-63.2-76.7-99.7-180.2-99.7-285.7c0-69,17.3-92,287.6-364.3c258.8-260.7,287.6-295.2,287.6-354.7c0-61.4-40.2-107.4-513.8-579c-473.5-475.4-517.6-513.8-579-513.8c-59.4,0-93.9,26.8-350.8,283.7c-278,276.1-283.7,281.8-364.3,279.9c-95.9-1.9-243.5-63.3-310.6-130.4l-47.9-47.9v-395v-396.8l-55.6-55.6l-55.6-55.6h-709.3h-709.3l-59.4,49.8l-59.4,49.9v400.7v402.6l-47.9,47.9c-67.1,67.1-214.7,128.4-310.6,130.4c-80.5,1.9-86.3-3.8-364.3-279.9c-256.9-256.9-291.4-283.7-350.8-283.7c-61.4,0-105.4,38.3-579,513.8c-473.5,471.6-513.8,517.6-513.8,579c0,59.4,28.8,93.9,287.6,354.7c283.7,287.6,287.6,291.4,287.6,375.8c0,92-55.6,232-118.9,301c-40.2,40.3-49.8,42.2-458.2,42.2h-416l-49.8,59.5l-49.8,59.4V124v709.3l55.6,55.6l55.6,55.6h419.9h419.9l49.8,53.7c65.2,69,107.4,155.3,122.7,251.1l13.4,80.5l-310.6,310.6c-278,281.8-308.7,318.2-308.7,377.7c0,61.4,40.3,107.4,513.8,579c475.5,475.4,517.6,513.8,579,513.8s95.9-26.8,373.8-306.7c276.1-276.1,312.5-306.7,371.9-306.7c99.7,0,210.9,40.3,272.2,97.8l55.6,51.8v435.2v435.2l55.6,55.6l55.6,55.6h713.2h713.2L5765.2,3572.9z"/><path d="M4474.9,2923c-5.7-379.6-5.7-381.5-59.4-460.1c-109.3-164.9-333.6-278-559.8-278c-92-1.9-155.3,9.6-201.3,32.6c-36.4,19.2-176.4,143.8-312.5,276.1l-243.5,243.5l-358.5-358.5L2381.4,2020l251.1-256.9c281.8-285.7,304.8-329.8,287.6-546.4c-11.5-149.5-93.9-325.9-205.1-439c-132.3-132.3-161-139.9-554.1-139.9h-347V120.1v-517.6h335.5c295.2,0,347-3.8,410.3-36.4c203.2-103.5,373.8-450.5,335.5-682.5c-23-143.8-65.2-208.9-289.5-435.2l-224.3-228.1l356.6-356.6l358.5-358.5l235.8,230.1c251.1,245.4,304.8,276.1,481.2,276.1c207.1,0,481.2-139.9,598.2-302.9l57.5-84.4l5.7-343.2l5.8-343.2h517.6H5514v322.1c0,301,3.8,329.8,44.1,408.4c92,174.5,339.4,318.2,582.8,337.4c193.6,17.3,264.6-21.1,529.1-279.9l226.2-220.5l358.5,358.5l356.6,356.6L7391-1553.5c-122.7,124.6-235.8,253.1-253.1,283.7c-126.5,251.2,32.6,701.7,295.2,835.9c63.3,32.6,115,36.4,410.3,36.4h335.5v517.6v517.6h-347c-279.9,0-360.4,5.7-412.2,30.7c-170.6,80.5-329.8,333.6-347,548.3c-17.2,216.6,5.8,260.7,287.6,546.4l251.2,256.9l-358.5,358.5l-358.5,356.6l-243.5-239.6c-136.1-134.2-272.2-256.9-304.8-272.2c-92-47.9-201.3-57.5-325.9-32.6c-201.3,42.2-360.4,141.9-450.6,283.7l-55.6,88.2v370v370h-515.7h-517.6L4474.9,2923z M5408.6,1701.8c174.5-46,483.1-205.1,619.2-318.2C6208,1234,6348,1053.8,6453.5,839.1c138-281.8,161-389.2,161-718.9c0-329.8-23-435.2-161-718.9c-201.3-417.9-571.3-724.7-1029.5-857c-216.6-63.3-638.4-63.3-857,0c-554.1,159.1-987.3,592.4-1146.5,1148.4c-63.3,216.6-63.3,638.4,0,857c178.3,619.2,671,1060.2,1326.7,1188.6C4845,1757.4,5295.5,1732.5,5408.6,1701.8z"/><path d="M4756.8,1414.2C4068.5,1287.7,3595,637.8,3690.8-44.7c44.1-314.4,157.2-546.4,375.8-764.9s450.5-331.7,764.9-375.8c281.8-40.3,592.4,24.9,849.3,176.4c141.9,84.3,360.4,302.9,444.8,444.8c410.2,695.9,120.8,1587.4-615.4,1896.1C5266.7,1435.3,5013.7,1462.2,4756.8,1414.2z"/></g></g>
</svg>