<?xml version="1.0" encoding="utf-8"?>
<!-- Svg Vector Icons : http://www.onlinewebfonts.com/icon -->
<!DOCTYPE svg PUBLIC "-//W3C//DTD SVG 1.1//EN" "http://www.w3.org/Graphics/SVG/1.1/DTD/svg11.dtd">
<svg version="1.1" xmlns="http://www.w3.org/2000/svg" xmlns:xlink="http://www.w3.org/1999/xlink" x="0px" y="0px" viewBox="0 0 1000 1000" enable-background="new 0 0 1000 1000" xml:space="preserve">
<metadata> Svg Vector Icons : http://www.onlinewebfonts.com/icon </metadata>
<g><path d="M710.8,836c2.1-27-5.5-36.1-33.2-34.9c-14,0.6-27.8,4.1-43.1,6.5c-1.4-5.8-2.9-12.2-4.6-19.4c27-9.8,53.2-16.6,81-9.9c19.5,4.7,32.1,16.7,32.8,36.5c1.3,39.1,0.4,78.3,0.4,118.8c-10.8-1.9-25.5,9-27.9-9.6c-16.4,4.2-32.8,10.9-49.6,12.3c-23.8,1.9-39-10.8-43.4-31c-5-23,4.2-46.3,25.1-53.9C667.8,844.2,688.8,841.3,710.8,836z M711.4,860.6c-14.9,2.2-27.9,3-40.3,6.1c-12.5,3.1-19,17-15.4,29c3.9,12.8,15.1,18.8,28.8,15.5c22.8-5.6,27.1-11.1,26.9-35.1C711.4,872.3,711.4,868.5,711.4,860.6z"/><path d="M455.4,933.5c-8.1,0-15.4,0-23.4,0c-1.4-3.8-2.9-7.7-4.5-12.1c-1.6,0.2-3.2-0.1-4.1,0.6c-13.8,10.2-28.9,16.1-46.5,15.2c-22.1-1.1-36-10.4-41.4-28.7c-6.1-20.8,0.6-44.2,19.4-53.7c14.4-7.3,31.3-9.9,47.3-13.8c6.5-1.6,13.5-1.2,20.1-1.6c3.5-28.4-5-38.6-31.9-38.1c-7.3,0.1-14.6,1.3-21.8,2.6c-7.1,1.3-14,3.4-21,5.1c-7.6-19.9-8.1-21.8,10.8-25.9c19.3-4.1,39.6-6.4,59.1-5c24.2,1.7,36.1,13.6,37.6,37.6c2.2,35.2,1.2,70.7,1.5,106C456.6,925.3,455.8,929.1,455.4,933.5z M422.3,860.9c-13.7,1.9-26.9,2.6-39.4,5.8c-12.7,3.1-18.5,16.2-15,29.1c3.2,11.8,13.3,18.9,25.8,15.8C424.7,904,426.8,898.8,422.3,860.9z"/><path d="M504.4,374.3c-30.2-30.3-65.1-56.7-81.1-98.7c-7.5-19.8-7.8-40,7-55.3c24.4-25.2,51.2-48.2,77.1-72c11.2-10.3,23.4-19.5,34.2-30.1C571.7,88.3,585.8,53,576,10c18.2,19.4,21.1,42.5,15.5,66.6c-9.5,41.2-37.2,70.3-67.8,97.1c-14.7,12.9-30.3,25.1-43.6,39.4c-30.8,33.1-32.9,65.9-8.3,104c11.8,18.3,24,36.4,36.1,54.5C506.7,372.5,505.6,373.4,504.4,374.3z"/><path d="M474.2,780.4c1.9-1,2.3-1.4,2.7-1.4c33.6-1,33.3-0.9,42.6,31.3c8,27.9,16.9,55.6,25.4,83.4c1.3,0.2,2.7,0.4,4,0.6c9.4-38.1,18.7-76.2,28.3-115c9.4,0,20,0,34,0c-7.9,30.1-14.8,58.9-23.2,87.2c-5.6,18.7-14,36.5-20.2,55.1c-3.5,10.3-9.5,14.1-19.8,12.5c-1.4-0.2-3-0.3-4.4,0c-16.6,3.4-24.1-3.7-28.6-19.9C502.3,869.6,488,825.4,474.2,780.4z"/><path d="M718,584.7c12.3,10.2-7,39.1-80.7,49.1c-398.2,40.9-377.8-6.9-378.4-17.1c-1.6-29.1,73.8-43.1,104.1-38.2c-20.2,7.8-75.9,41.9,1.2,44.7c55.3,2.9,110.9,6.9,166.1,4.9C582.6,626.2,717.4,605.5,718,584.7z"/><path d="M260.1,990c-5.3-6.5-10.2-12.5-16.5-20.1c31.6-14.8,34.1-42.2,33.7-71.9c-0.8-52.1-0.2-104.1-0.1-156.2c0-5.3,0-10.7,0-17.3c12,0,22.9,0,34.8,0c0.2,3.8,0.6,7.6,0.6,11.4c0,58,0.2,115.9-0.2,173.9C312.1,952.3,300.4,970.1,260.1,990z"/><path d="M657,146.3c-21.7,14.5-41,26.3-59,39.8c-13.2,9.9-26,21.1-36.6,33.6c-17.3,20.3-17.2,35.8-3,58.7c5.7,9.1,11.6,18.1,18,26.8c13.4,18.2,13,37.5,0.8,54.7c-10,14.2-24.1,25.4-38.7,40.3c-0.6-6.1-1.1-7.2-0.8-7.8c19-31,18.5-38.4-4.3-68.1c-28.1-36.7-33.1-69.2-11.7-99.9c10.1-14.5,23.9-28.2,39.1-36.8c27.5-15.5,57.2-27,86.1-40C648.9,146.6,651.4,146.9,657,146.3z"/><path d="M614.9,560.1C450.7,608.4,387,549.9,387,549.9l21.3-18.6c8.2,5.9,51.6,33.3,144.5,13.7L614.9,560.1z"/><path d="M425.2,379c0,0-102.7,36.9,7.2,39.5c15,0.4,215.5-15.3,215.5-15.3s-129.4,36.9-245,33.7C248.1,421.5,425.1,378.9,425.2,379z"/><path d="M401.3,453.3c0,0-15.2,29.3,28.6,30.4C534,486.4,610,468,610,468s16,20.5,16,22.6c0,0-139.4,32.2-219,12C356.2,489.6,389.8,459.1,401.3,453.3z"/><path d="M755.1,623.8c-264.9,76.4-398.8,40.1-398.8,40.1s56.9,48,199.4,20.5C608.5,674.1,703.2,646.2,755.1,623.8z"/><path d="M649.5,502.2c12.1-7.8,23.3-13.6,32.7-21.6c13.3-11.3,26.8-23,37.3-36.7c9.9-13,11.3-29.2,1.7-44.2c-9.8-15.2-50.2-16.4-55.7-17.3c2.6-2.1,7.8-5.9,7.8-5.9s19.9-5.2,45.9-2c35.9,7.9,48.3,46.3,26.3,76.1C727.4,475.2,681.9,500.2,649.5,502.2z"/></g>
</svg>