<?xml version="1.0" encoding="utf-8"?>
<!-- Svg Vector Icons : http://www.onlinewebfonts.com/icon -->
<!DOCTYPE svg PUBLIC "-//W3C//DTD SVG 1.1//EN" "http://www.w3.org/Graphics/SVG/1.1/DTD/svg11.dtd">
<svg version="1.1" xmlns="http://www.w3.org/2000/svg" xmlns:xlink="http://www.w3.org/1999/xlink" x="0px" y="0px" viewBox="0 0 1000 1000" enable-background="new 0 0 1000 1000" xml:space="preserve">
<metadata> Svg Vector Icons : http://www.onlinewebfonts.com/icon </metadata>
<g><g transform="translate(0.000000,511.000000) scale(0.100000,-0.100000)"><path d="M4682.1,4994.7c-65.6-4.4-129-17.5-139.9-28.4c-8.8-8.7-10.9-89.7-2.2-174.9l15.3-157.5l161.8,8.8c89.6,6.6,168.4,15.3,172.7,21.9c6.6,6.6,4.4,85.3-2.2,177.1c-13.1,135.6-21.9,168.4-50.3,164C4817.7,5003.4,4747.7,4999.1,4682.1,4994.7z"/><path d="M5241.9,4929.1c-6.6-45.9-13.1-124.6-13.1-174.9v-94l142.1-2.2c78.7-2.2,155.3-4.4,170.6-6.6c17.5-2.2,32.8,52.5,45.9,159.6c21.9,192.4,17.5,199-185.9,199h-144.3L5241.9,4929.1z"/><path d="M5941.7,4835.1c-8.8-63.4-19.7-142.1-26.3-172.8c-13.1-56.9-8.7-59,146.5-85.3c87.5-15.3,166.2-19.7,174.9-10.9c6.5,10.9,28.4,83.1,45.9,166.2l32.8,146.5l-78.7,19.7c-43.7,13.1-124.7,28.4-179.3,35l-100.6,15.3L5941.7,4835.1z"/><path d="M4037,4887.5c-59.1-13.1-137.8-32.8-170.6-39.4c-45.9-10.9-59-24.1-50.3-52.5c6.6-19.7,26.2-94,45.9-164l37.2-129l78.7,15.3c45.9,6.6,118.1,24.1,164,35l85.3,21.9l-15.3,91.8c-8.7,48.1-28.4,124.6-41.5,168.4l-24.1,80.9L4037,4887.5z"/><path d="M6661.1,4762.9c-6.6-15.3-28.4-87.5-52.5-164l-41.5-137.8l56.8-21.9c32.8-10.9,100.6-37.2,153.1-56.9c54.7-19.7,100.6-26.2,111.5-15.3c24.1,28.4,118.1,295.2,105,306.1c-4.4,4.4-78.7,32.8-166.2,63.4C6713.6,4773.8,6667.7,4782.6,6661.1,4762.9z"/><path d="M3300.1,4662.3c-78.7-30.6-150.9-63.4-157.4-70c-8.8-6.6,17.5-83.1,54.7-166.2l67.8-153.1l144.3,54.7c80.9,30.6,150.9,61.2,157.5,63.4c10.9,8.7-91.8,312.7-109.3,323.6C3451,4719.2,3381,4695.1,3300.1,4662.3z"/><path d="M7266.8,4371.5l-65.6-159.6l133.4-70c74.4-39.4,142.1-70,148.7-72.2c17.5,0,172.8,255.9,172.8,286.5c0,15.3-284.3,172.8-312.7,172.8C7339,4528.9,7304,4456.8,7266.8,4371.5z"/><path d="M2648.4,4351.8c-65.6-35-129-74.4-140-85.3c-13.1-13.1,78.7-196.8,150.9-301.8c4.4-4.4,212.1,111.5,290.8,161.8c15.3,8.7-137.8,293-159.6,293C2779.6,4419.6,2714,4389,2648.4,4351.8z"/><path d="M4660.2,4264.3c-450.5-59-944.7-205.6-1327.4-400.2c-284.3-142.1-430.8-231.8-673.5-415.5c-336.7-251.5-820-782.9-820-898.8c0-74.4,124.6-242.7,356.4-485.5c437.4-452.7,879.1-750.1,1449.8-977.5c238.3-94,625.4-199,857.2-231.8c94-13.1,201.2-28.4,240.5-35l70-10.9l-4.4-693.2l-6.6-693.2L3276-588.1L1747.5-599l-41.5-52.5c-39.4-48.1-41.6-96.2-41.6-874.7v-826.6l-113.7-26.3c-402.3-91.8-774.1-457-881.2-865.9c-41.5-164-41.5-465.8,0-623.2c118.1-448.3,485.5-789.4,951.2-887.8c607.9-129,1233.3,258,1412.6,876.9c50.3,172.8,50.3,461.4,0,632c-129,435.2-487.7,785-898.8,872.5l-120.3,24.1v706.3V-938h1399.5h1399.5v-706.3v-708.5l-174.9-56.8c-223.1-74.4-371.7-168.4-531.4-341.2c-387.1-417.7-428.6-1030-105-1508.9c279.9-413.3,822.2-618.8,1301.1-494.2c312.7,80.9,629.8,325.8,774.1,597c262.4,489.8,183.7,1047.5-203.4,1438.9c-168.4,170.6-380.5,290.8-590.4,338.9l-120.3,26.3v708.5V-938h1399.5h1399.5v-706.3v-706.3l-157.5-48.1c-308.3-89.7-601.4-323.6-745.7-588.2c-76.5-144.3-146.5-415.5-146.5-572.9c2.2-457,266.8-887.8,673.5-1091.2c225.2-111.5,378.3-144.3,627.6-129c642.9,35,1145.9,570.8,1148,1218c0,535.8-380.5,1023.4-916.3,1172.1l-133.4,37.2v826.6c0,778.5-2.2,826.6-41.6,874.7L8229-599l-1528.5,10.9l-1526.3,10.9l-6.6,680.1l-4.4,680.1l288.7,24c813.4,67.8,1489.2,310.5,2123.3,763.2c367.4,262.4,911.9,844.1,911.9,973.1c0,115.9-384.9,555.4-728.2,835.3c-599.2,485.5-1320.8,789.4-2114.6,887.8C5432.1,4292.7,4868,4290.6,4660.2,4264.3z M5683.6,3905.7c822.2-115.9,1541.7-478.9,2119-1062.8c306.1-310.5,295.2-279.9,146.5-448.3C7450.5,1823.9,6742,1406.2,5989.8,1240c-841.9-188.1-1679.4-91.9-2455.7,282.1c-426.4,205.6-828.8,507.3-1134.9,848.5L2250.4,2539l65.6,83.1c37.2,45.9,170.6,181.5,295.2,304c542.3,522.6,1253,868.1,2014,979.7C4894.2,3945,5410.3,3945,5683.6,3905.7z M2239.5-2781.4c437.4-216.5,610.1-734.8,387.1-1172.1c-269-533.6-990.6-640.7-1401.7-205.5c-157.5,166.2-223,321.4-234,555.4c-17.5,367.4,150.9,664.8,470.2,826.6c140,70,238.4,87.5,437.3,80.9C2053.6-2700.5,2099.5-2711.4,2239.5-2781.4z M5294.4-2742c240.5-85.3,435.1-271.2,527-507.3c37.2-96.2,50.3-172.7,50.3-323.6c2.2-177.1-4.4-212.1-65.6-341.1c-168.4-356.5-483.3-542.3-863.8-516.1c-216.5,13.1-371.7,83.1-533.6,236.2c-433,408.9-334.6,1128.4,190.2,1399.5C4808.9-2685.2,5080.1-2665.5,5294.4-2742z M8316.5-2711.4c271.1-56.9,492-234,614.5-496.4c63.4-133.4,70-166.2,70-354.3c-2.2-164-10.9-234-52.5-334.6c-70-177.1-251.5-367.4-435.1-457c-135.6-67.8-161.8-72.1-365.2-72.1c-295.2,2.2-430.8,54.7-612.3,238.4c-74.4,74.3-155.2,179.3-181.5,238.3c-159.6,343.3-94,734.8,166.2,997.2C7734.8-2737.6,8023.4-2650.2,8316.5-2711.4z"/><path d="M4870.2,3663c-402.4-96.2-758.8-461.4-841.9-857.2c-78.7-373.9,28.4-734.8,301.8-1010.3c461.4-470.2,1200.5-472.3,1664.1-2.2c227.4,231.8,328,470.2,328,778.5c-2.2,310.5-105,557.6-325.8,776.3C5692.4,3649.8,5285.6,3763.6,4870.2,3663z M5423.4,3306.5c347.7-107.1,564.2-415.5,544.5-774.1c-15.3-290.8-177.1-531.4-446.1-662.6c-118.1-56.9-148.7-63.4-358.6-63.4c-207.8,0-242.7,6.6-354.3,61.2c-164,80.9-312.7,227.4-384.9,382.7c-50.3,107.2-59.1,153.1-59.1,321.5c0,170.6,8.8,214.3,59.1,317.1C4603.4,3256.2,5023.2,3431.2,5423.4,3306.5z"/><path d="M7872.6,4023.8c-48.1-74.3-80.9-140-72.2-148.7c35-28.4,249.3-177.1,255.9-177.1c8.8,0,212.1,258,212.1,271.2c0,15.3-258,188.1-282.1,188.1C7973.2,4157.2,7922.9,4098.1,7872.6,4023.8z"/><path d="M2029.6,3947.2c-74.4-61.2-118.1-109.3-109.3-124.6c8.8-15.3,52.5-78.7,100.6-140l85.3-115.9l59,41.5c30.6,24.1,91.9,72.2,133.4,107.1l74.4,63.4l-85.3,133.4c-48.1,74.4-96.2,135.6-109.3,135.6C2167.3,4047.8,2099.5,4001.9,2029.6,3947.2z"/><path d="M8445.5,3619.2c-61.2-70-111.5-133.4-111.5-140c0-6.6,54.7-61.2,122.5-120.3l122.5-105l118.1,118.1l118.1,118.1L8688.2,3617l-129,126.8L8445.5,3619.2z"/><path d="M1489.4,3468.3l-118.1-120.3l85.3-89.7c146.5-148.7,153.1-148.7,286.5-17.5l118.1,115.9l-113.7,115.9c-63.4,63.4-120.3,115.9-126.8,115.9C1614.1,3588.6,1555,3533.9,1489.4,3468.3z"/><path d="M8935.3,3120.6l-131.2-115.9l107.2-129c56.8-72.2,107.1-129,111.5-129c2.2,0,65.6,48.1,140,105l133.4,105l-113.7,142.1c-61.2,76.5-113.7,139.9-113.7,139.9C9066.5,3238.7,9007.5,3184.1,8935.3,3120.6z"/><path d="M1019.3,2939.1c-54.7-70-98.4-133.4-98.4-142.1c0-13.1,181.5-157.4,253.7-199c19.7-10.9,201.2,209.9,205.5,253.7c2.2,17.5-227.4,212.1-249.3,212.1C1124.2,3063.8,1074,3006.9,1019.3,2939.1z"/></g></g>
</svg>